<svg xmlns="http://www.w3.org/2000/svg" xmlns:xlink="http://www.w3.org/1999/xlink" width="100" height="100" viewBox="0 0 100 100"><circle stroke="none" fill="#175ca1" r="48%" cx="50%" cy="50%"></circle><g transform="translate(50 50) scale(0.69 0.69) rotate(0) translate(-50 -50)" style="fill:#ffffff"><svg fill="#ffffff" xmlns:dc="http://purl.org/dc/elements/1.1/" xmlns:cc="http://creativecommons.org/ns#" xmlns:rdf="http://www.w3.org/1999/02/22-rdf-syntax-ns#" xmlns:svg="http://www.w3.org/2000/svg" xmlns="http://www.w3.org/2000/svg" xmlns:sodipodi="http://sodipodi.sourceforge.net/DTD/sodipodi-0.dtd" xmlns:inkscape="http://www.inkscape.org/namespaces/inkscape" version="1.1" x="0px" y="0px" viewBox="0 0 100 100"><g transform="translate(0,-952.36218)"><path d="m 45.780286,967.16548 a 2.000005,2.000005 0 0 1 1.9697,2.0281 l 0,6.4125 6.4134,0 a 2.000005,2.000005 0 1 1 0,3.9994 l -6.4134,0 0,6.4125 a 2.000005,2.000005 0 1 1 -3.9997,0 l 0,-6.4125 -6.4272,0 a 2.000005,2.000005 0 1 1 0,-3.9994 l 6.4272,0 0,-6.4125 a 2.000005,2.000005 0 0 1 2.03,-2.0281 z" style="text-indent:0;text-transform:none;direction:ltr;block-progression:tb;baseline-shift:baseline;color:#000000;enable-background:accumulate;" fill="#ffffff" fill-opacity="1" fill-rule="evenodd" stroke="none" marker="none" visibility="visible" display="inline" overflow="visible"></path><path d="m 30.600886,958.34828 a 2.000005,2.000005 0 0 1 1.9697,2.0281 l 0,2.6047 2.5919,0 a 2.000005,2.000005 0 1 1 0,3.9994 l -2.5919,0 0,2.6047 a 2.000005,2.000005 0 1 1 -3.9993,0 l 0,-2.6047 -2.6054,0 a 2.000005,2.000005 0 1 1 0,-3.9994 l 2.6054,0 0,-2.6047 a 2.000005,2.000005 0 0 1 2.0296,-2.0281 z" style="text-indent:0;text-transform:none;direction:ltr;block-progression:tb;baseline-shift:baseline;color:#000000;enable-background:accumulate;" fill="#ffffff" fill-opacity="1" fill-rule="evenodd" stroke="none" marker="none" visibility="visible" display="inline" overflow="visible"></path><path d="m 24.469886,987.79768 a 2.000005,2.000005 0 0 1 1.9697,2.0281 l 0,6.4125 6.4134,0 a 2.000005,2.000005 0 1 1 0,3.99942 l -6.4134,0 0,6.4125 a 2.000005,2.000005 0 1 1 -3.9996,0 l 0,-6.4125 -6.4135,0 a 2.000005,2.000005 0 1 1 0,-3.99942 l 6.4135,0 0,-6.4125 a 2.000005,2.000005 0 0 1 2.0299,-2.0281 z" style="text-indent:0;text-transform:none;direction:ltr;block-progression:tb;baseline-shift:baseline;color:#000000;enable-background:accumulate;" fill="#ffffff" fill-opacity="1" fill-rule="evenodd" stroke="none" marker="none" visibility="visible" display="inline" overflow="visible"></path><path d="m 13.017986,977.04948 a 2.000005,2.000005 0 0 1 1.9697,2.0282 l 0,2.6046 2.6054,0 a 2.000005,2.000005 0 1 1 0,3.9994 l -2.6054,0 0,2.6047 a 2.000005,2.000005 0 1 1 -3.9996,0 l 0,-2.6047 -2.6053003,0 a 2.000005,2.000005 0 1 1 0,-3.9994 l 2.6053003,0 0,-2.6046 a 2.000005,2.000005 0 0 1 2.0299,-2.0282 z" style="text-indent:0;text-transform:none;direction:ltr;block-progression:tb;baseline-shift:baseline;color:#000000;enable-background:accumulate;" fill="#ffffff" fill-opacity="1" fill-rule="evenodd" stroke="none" marker="none" visibility="visible" display="inline" overflow="visible"></path><path d="m 19.513286,966.87028 a 2.0001447,1.9998652 0 0 1 1.3846,0.5852 l 72.1686,72.15862 a 2.0001447,1.9998652 0 0 1 0,2.8279 l -3.3491,3.3487 a 2.0001447,1.9998652 0 0 1 -2.8284,0 l -72.1686,-72.15852 a 2.0001447,1.9998652 0 0 1 0,-2.828 l 3.3491,-3.3487 a 2.0001447,1.9998652 0 0 1 1.4438,-0.5852 z" style="text-indent:0;text-transform:none;direction:ltr;block-progression:tb;baseline-shift:baseline;color:#000000;enable-background:accumulate;" fill="#ffffff" fill-opacity="1" fill-rule="evenodd" stroke="none" marker="none" visibility="visible" display="inline" overflow="visible"></path></g></svg></g></svg>