<?xml version="1.0" encoding="utf-8"?>
<!-- Generator: Adobe Illustrator 26.3.1, SVG Export Plug-In . SVG Version: 6.00 Build 0)  -->
<svg version="1.1" id="Layer_1" xmlns="http://www.w3.org/2000/svg" xmlns:xlink="http://www.w3.org/1999/xlink" x="0px" y="0px"
	 viewBox="0 0 997 516" style="enable-background:new 0 0 997 516;" xml:space="preserve">
<style type="text/css">
	.st0{fill:none;}
	.st1{fill:none;stroke:#000000;stroke-width:3;stroke-miterlimit:10;}
	.st2{stroke:#000000;stroke-width:3;stroke-miterlimit:10;}
	.st3{fill:#CFD7DF;stroke:#CFD7DF;stroke-width:3;stroke-miterlimit:10;}
	.st4{fill:#EAEEF2;stroke:#CFD7DF;stroke-width:3;stroke-miterlimit:10;}
	.st5{font-family:'Helvetica';}
	.st6{font-size:16px;}
	.st7{fill:#FFFFFF;stroke:#CFD7DF;stroke-width:3;stroke-miterlimit:10;}
	.st8{fill:#505050;}
	.st9{fill:#FFFFFF;}
	.st10{fill:#232F3E;}
	.st11{fill:none;stroke:#000000;stroke-miterlimit:10;stroke-dasharray:3,3;}
	.st12{fill:#B9E0A5;stroke:#B9E0A5;stroke-width:3;stroke-miterlimit:10;}
	.st13{fill:#EAF6E4;stroke:#B9E0A5;stroke-width:3;stroke-miterlimit:10;}
	.st14{fill:#FFFFFF;stroke:#B9E0A5;stroke-width:3;stroke-miterlimit:10;}
	.st15{fill-opacity:0.3;}
	.st16{fill:none;stroke:#000000;}
	.st17{font-size:15px;}
	.st18{fill:#FFFFFF;stroke:#000000;stroke-width:3;}
	.st19{fill:none;stroke:#CFD7DF;stroke-width:3;stroke-miterlimit:10;}
	.st20{clip-path:url(#SVGID_00000066507419519599438440000011520179790522106801_);}
	.st21{clip-path:url(#SVGID_00000173851908047683682580000012203197756661403557_);}
	.st22{clip-path:url(#SVGID_00000121986438931945565310000001865909340214698935_);}
	.st23{clip-path:url(#SVGID_00000025431129099450945660000000983811494294662568_);}
	.st24{clip-path:url(#SVGID_00000044862232683467803840000002829023200289428880_);}
	.st25{clip-path:url(#SVGID_00000130631910943064662290000006782614067818846620_);}
	.st26{clip-path:url(#SVGID_00000079469545697315344120000001189754531798544555_);}
	.st27{clip-path:url(#SVGID_00000173155408409099029710000010597824506333976747_);}
	.st28{clip-path:url(#SVGID_00000139973324305509409080000013342778106373639091_);}
	.st29{fill:#EAEEF2;stroke:#CFD7DF;stroke-width:3;}
</style>
<path class="st0" d="M0,0"/>
<g>
	<path pointer-events="stroke" class="st1" d="M611.5,88.5h63.4"/>
	<path pointer-events="all" class="st2" d="M681.7,88.5l-9,4.5l2.2-4.5l-2.2-4.5L681.7,88.5z"/>
	<path pointer-events="stroke" class="st1" d="M694.5,341.5h8.5c5.7,0,8.5-3.3,8.5-10v-67c0-6.7,3.3-10,10-10.1l19.9-0.2"/>
	<path pointer-events="all" class="st2" d="M748.2,254l-9,4.6l2.2-4.5l-2.3-4.5L748.2,254z"/>
	<path pointer-events="stroke" class="st1" d="M694.5,341.5h8.5c5.7,0,8.5,3.3,8.5,10v67c0,6.7,3.3,10,10,9.9l19.9-0.2"/>
	<path pointer-events="all" class="st2" d="M748.2,428l-9,4.6l2.2-4.5l-2.3-4.5L748.2,428z"/>
	<path pointer-events="stroke" class="st1" d="M186.5,251.5v-41c0-6.7,3.3-10,10-10h100c6.7,0,10-2.5,10-7.4v-7.4"/>
	<path pointer-events="all" class="st2" d="M306.5,178.9l4.5,9l-4.5-2.2l-4.5,2.2L306.5,178.9z"/>
	<path pointer-events="stroke" class="st1" d="M351.5,341.5h25.9"/>
	<path pointer-events="all" class="st2" d="M384.1,341.5l-9,4.5l2.2-4.5l-2.2-4.5L384.1,341.5z"/>
	<path pointer-events="all" class="st3" d="M694.5,229v-23.3c0-12.7-3.5-19.2-10.3-19.2H397.9c-6.9,0-10.4,6.3-10.4,19.2V229"/>
	<path pointer-events="all" class="st4" d="M387.5,229v257.9c0,6.4,3.4,9.7,10.4,9.7h286.3c6.9,0,10.3-3.2,10.3-9.7V229"/>
	<g>
		<text transform="matrix(1 0 0 1 479.6562 203.5)" class="st5 st6">Boite à outils de </text>
		<text transform="matrix(1 0 0 1 447.1562 221.5)" class="st5 st6">publication intégrée (IPT)</text>
	</g>
	<path pointer-events="all" class="st7" d="M402,273.1v204.5c0,5.9,3.4,8.9,10.4,8.9h257.8c6.9,0,10.3-2.9,10.3-8.9V273.1"/>
	<path pointer-events="all" class="st3" d="M680.2,273.1V258c0-8.3-3.5-12.5-10.3-12.5H412.1c-6.9,0-10.4,4.1-10.4,12.5v15.1"/>
	<g>
		<text transform="matrix(1 0 0 1 464.832 265.5)" class="st5 st6">Archive Darwin Core</text>
	</g>
	<rect x="445.5" y="260.5" pointer-events="all" class="st0" width="40" height="47"/>
	<path pointer-events="all" class="st8" d="M455.3,313.1v-2.2h20.4v2.2H455.3z M455.3,319.1v-2.2h20.4v2.2H455.3z M455.3,325v-2.2
		h20.4v2.2H455.3z M447.8,333.3h35.5v-30.6H472v-11.9h-24.2V333.3z M445.5,335.5v-47h27.9l12.1,11.9v35.1H445.5z"/>
	<g>
		<text transform="matrix(1 0 0 1 416.164 355)" class="st5 st6">Métadonnées </text>
		<text transform="matrix(1 0 0 1 442.864 374.2)" class="st5 st6">(EML)</text>
	</g>
	<path pointer-events="all" class="st9" d="M595.5,285h44v44h-44V285z"/>
	<path pointer-events="all" class="st10" d="M601.5,323v-4.7h4.7v4.7H601.5z M599.9,324.6h7.9v-7.9h-7.9V324.6z M610.6,323v-4.7
		h22.9v4.7H610.6z M609,324.6h26.1v-7.9H609V324.6z M601.5,313.9v-4.7h4.7v4.7H601.5z M599.9,315.5h7.9v-7.9h-7.9V315.5z
		 M610.6,313.9v-4.7h22.9v4.7H610.6z M609,315.5h26.1v-7.9H609V315.5z M601.5,304.8v-4.7h4.7v4.7H601.5z M599.9,306.4h7.9v-7.9h-7.9
		V306.4z M610.6,304.8v-4.7h22.9v4.7H610.6z M609,306.4h26.1v-7.9H609V306.4z M601.5,295.7V291h4.7v4.7H601.5z M599.9,297.3h7.9
		v-7.9h-7.9V297.3z M610.6,295.7V291h22.9v4.7H610.6z M609,297.3h26.1v-7.9H609V297.3z"/>
	<g>
		<text transform="matrix(1 0 0 1 564.9918 349.5)" class="st10 st5 st6">Extension pour</text>
		<text transform="matrix(1 0 0 1 571.2145 368.5)" class="st10 st5 st6">les données</text>
		<text transform="matrix(1 0 0 1 548.3319 385.4998)" class="st10 st5 st6">dérivées de l’ADN</text>
	</g>
	<path pointer-events="all" class="st9" d="M443.5,396.5h46v46h-46V396.5z"/>
	<path pointer-events="all" class="st10" d="M449.8,436.2v-4.9h4.9v4.9H449.8z M448.1,437.9h8.3v-8.3h-8.3V437.9z M459.3,436.2v-4.9
		h23.9v4.9H459.3z M457.6,437.9h27.3v-8.3h-27.3V437.9z M449.8,426.7v-4.9h4.9v4.9H449.8z M448.1,428.4h8.3v-8.3h-8.3V428.4z
		 M459.3,426.7v-4.9h23.9v4.9H459.3z M457.6,428.4h27.3v-8.3h-27.3V428.4z M449.8,417.2v-4.9h4.9v4.9H449.8z M448.1,418.9h8.3v-8.3
		h-8.3V418.9z M459.3,417.2v-4.9h23.9v4.9H459.3z M457.6,418.9h27.3v-8.3h-27.3V418.9z M449.8,407.7v-4.9h4.9v4.9H449.8z
		 M448.1,409.4h8.3v-8.3h-8.3V409.4z M459.3,407.7v-4.9h23.9v4.9H459.3z M457.6,409.4h27.3v-8.3h-27.3V409.4z"/>
	<g>
		<text transform="matrix(1 0 0 1 406.8672 462)" class="st10 st5 st6">Core occurrence</text>
	</g>
	<path pointer-events="stroke" class="st11" d="M489.5,419.5L592.8,306"/>
	<path pointer-events="all" class="st9" d="M597.5,397.5h44v44h-44V397.5z"/>
	<path pointer-events="all" class="st10" d="M603.5,435.5v-4.7h4.7v4.7H603.5z M601.9,437.1h7.9v-7.9h-7.9V437.1z M612.6,435.5v-4.7
		h22.9v4.7H612.6z M611,437.1h26.1v-7.9H611V437.1z M603.5,426.4v-4.7h4.7v4.7H603.5z M601.9,428h7.9v-7.9h-7.9V428z M612.6,426.4
		v-4.7h22.9v4.7H612.6z M611,428h26.1v-7.9H611V428z M603.5,417.3v-4.7h4.7v4.7H603.5z M601.9,418.9h7.9V411h-7.9V418.9z
		 M612.6,417.3v-4.7h22.9v4.7H612.6z M611,418.9h26.1V411H611V418.9z M603.5,408.2v-4.7h4.7v4.7H603.5z M601.9,409.8h7.9v-7.9h-7.9
		V409.8z M612.6,408.2v-4.7h22.9v4.7H612.6z M611,409.8h26.1v-7.9H611V409.8z"/>
	<g>
		<text transform="matrix(1 0 0 1 589.0879 455)" class="st10 st5 st6">Mesures</text>
		<text transform="matrix(1 0 0 1 594.8692 474)" class="st10 st5 st6">&amp; Faits</text>
	</g>
	<path pointer-events="stroke" class="st11" d="M489.5,419.5h108"/>
	<path pointer-events="all" class="st12" d="M351.5,274.5v-12.6c0-6.9-3.4-10.4-10.4-10.4H31.9c-6.9,0-10.4,3.4-10.4,10.4v12.6"/>
	<path pointer-events="all" class="st13" d="M21.5,274.5v146.6c0,6.9,3.4,10.4,10.4,10.4h309.3c6.9,0,10.4-3.4,10.4-10.4V274.5"/>
	<g>
		<text transform="matrix(1 0 0 1 37.8203 269.5)" class="st5 st6">Gestion interne à l’institution des données</text>
	</g>
	<path pointer-events="all" class="st12" d="M225.2,349.5v-30.2c0-16.5-5.7-24.8-17.1-24.8h-59.3c-11.4,0-17.1,8.3-17.1,24.8v30.2"
		/>
	<path pointer-events="all" class="st14" d="M131.8,349.5v40.9c0,11.4,5.7,17.1,17.1,17.1h59.3c11.4,0,17.1-5.7,17.1-17.1v-40.9"/>
	<g>
		<text transform="matrix(1 0 0 1 138.6636 311.5)" class="st5 st6">Données et</text>
		<text transform="matrix(1 0 0 1 142.6714 328.6255)" class="st5 st6">protocoles</text>
		<text transform="matrix(1 0 0 1 153.3356 345.7513)" class="st5 st6">de labo</text>
	</g>
	
		<image style="overflow:visible;enable-background:new    ;" width="132" height="132" xlink:href="D41337A04AD4F08.png"  pointer-events="none" transform="matrix(0.25 0 0 0.25 183.75 359.5)">
	</image>
	<path pointer-events="none" d="M146.2,373.3h2.7c0.4-1.7,1.1-3.2,2-4.7l-1.9-1.8l4.7-4.5h1.8l1.3,1.2c1-0.5,2.1-0.9,3.6-1.3v-2.6
		h8.5v2.6c1.1,0.2,2.1,0.5,3.7,1.2l1.2-1.2h1.9l4.7,4.6l-1.9,1.9c0.7,0.9,1.6,2.9,2,4.7h2.7v6.4h-2.7c-0.5,1.7-1.1,3.4-2,4.7
		l1.9,1.8l-4.7,4.5h-1.9l-1.2-1.2c-1.1,0.6-2.5,1.1-3.6,1.3v2.6h-8.5v-2.6c-1.3-0.3-2.8-0.8-3.6-1.3l-1.3,1.2h-1.9l-4.7-4.5l1.9-1.9
		c-0.8-1.1-1.7-3.1-2-4.7h-2.7V373.3z"/>
	<path pointer-events="none" class="st15" d="M154.6,390.8h-1.9l-4.7-4.5l1.9-1.9c-0.8-1.1-1.7-3.1-2-4.7h1.9c0.3,1.7,1.3,3.5,2,4.7
		l-1.9,1.9L154.6,390.8z M161.4,390.9v2.6h-1.8v-2.6c-1.1-0.2-2.8-0.8-3.6-1.3l0.7-0.6C157.8,389.7,159.2,390.4,161.4,390.9z
		 M172.8,389l1.9,1.8h-1.9l-1.2-1.2L172.8,389z M171.6,363.4l1.2-1.2h1.9l-1.9,1.8L171.6,363.4z M156.5,364l-0.7-0.6
		c1-0.5,2.1-0.9,3.6-1.3v-2.6h1.8v2.6C159.6,362.4,157.8,363.3,156.5,364z M147.9,373.3c0.4-1.7,1.1-3.2,2-4.7l-1.9-1.8l4.7-4.5h1.8
		l-4.7,4.5l2,1.9c-0.9,1.2-1.7,3.1-2,4.7h-1.9L147.9,373.3L147.9,373.3z M147.1,379.7h-1.8v-6.5h1.8V379.7z"/>
	<path pointer-events="none" class="st16" d="M192.2,369.5L192.2,369.5L192.2,369.5z"/>
	<path pointer-events="none" class="st9" d="M166.8,371.5l-6.7-3.8l6.7-3.7v2.3c2.7,0.2,6.3,1.7,8.5,6c1.8,3.9,0.6,8.1-1.2,10.3
		l-2.5-1.8c1.7-2.2,2-4.6,0.9-7.2c-1-2.1-2.9-3.7-5.7-4.2V371.5z M164.6,381.4l6.6,3.8l-6.6,3.7v-2.3c-2.4-0.3-5.6-1.3-7.9-4.8
		c-2.6-4-1.7-8.8,0.5-11.5l2.5,1.8c-1.6,2.1-2.2,5.3-0.4,8.1c1,1.5,2.5,2.9,5.2,3.4L164.6,381.4L164.6,381.4z"/>
	<path pointer-events="none" class="st12" d="M341.5,309.5v-11c0-6-3-9-9-9h-85c-6,0-9,3-9,9v11"/>
	<path pointer-events="none" class="st14" d="M238.5,309.5v91c0,6,3,9,9,9h85c6,0,9-3,9-9v-91"/>
	<g pointer-events="none">
		<text transform="matrix(1 0 0 1 239.2617 306)" class="st5 st17">Bioinformatique</text>
	</g>
	<path pointer-events="none" d="M276.9,372.6v-2.7h-5.5v-1.5h9.3c0.3,0,0.6-0.3,0.6-0.7v-27.8c0-0.4-0.3-0.7-0.6-0.7h-31.4
		c-0.3,0-0.6,0.3-0.6,0.7v27.8c0,0.4,0.3,0.7,0.6,0.7h9.4v1.5h-5.5v2.7l-4.6,3.7v3h33v-3L276.9,372.6z M250.8,365.8v-24.1
		c0-0.3,0.2-0.6,0.5-0.6h27.1c0.3,0,0.5,0.3,0.5,0.6v24.1c0,0.3-0.2,0.6-0.5,0.6h-27.1C251.1,366.3,250.8,366.1,250.8,365.8z
		 M250.1,376.2l4.2-3.3h21.4l4.2,3.3H250.1z"/>
	
		<image style="overflow:visible;enable-background:new    ;" width="64" height="65" xlink:href="D41337A04AD4F09.png"  pointer-events="none" transform="matrix(0.6201 0 0 0.6201 288.1556 359.0956)">
	</image>
	
		<image style="overflow:visible;enable-background:new    ;" width="131" height="131" xlink:href="D41337A04AD4F0F.png"  pointer-events="none" transform="matrix(0.3359 0 0 0.3359 287.5 312.75)">
	</image>
	
		<image style="overflow:visible;enable-background:new    ;" width="136" height="136" xlink:href="D41337A04AD4F0A.png"  pointer-events="none" transform="matrix(0.125 0 0 0.125 289.5 328.75)">
	</image>
	
		<image style="overflow:visible;enable-background:new    ;" width="64" height="68" xlink:href="D41337A04AD4F0B.png"  pointer-events="none" transform="matrix(0.2878 0 0 0.2878 309.2921 327.4666)">
	</image>
	<path pointer-events="none" class="st12" d="M118.5,330.5v-21.4c0-11.7-3.5-17.6-10.3-17.6H38.8c-6.9,0-10.3,5.8-10.3,17.6v21.4"/>
	<path pointer-events="none" class="st14" d="M28.5,330.5v66.6c0,6.9,3.4,10.4,10.3,10.4h69.3c6.9,0,10.3-3.4,10.3-10.4v-66.6"/>
	<g pointer-events="none">
		<text transform="matrix(1 0 0 1 41.8438 308.5)" class="st5 st6">Données </text>
		<text transform="matrix(1 0 0 1 40.0438 326.5)" class="st5 st6">de terrain</text>
	</g>
	
		<image style="overflow:visible;enable-background:new    ;" width="133" height="133" xlink:href="D41337A04AD4F06.png"  pointer-events="none" transform="matrix(0.2181 0 0 0.2181 73.5 335.25)">
	</image>
	
		<image style="overflow:visible;enable-background:new    ;" width="132" height="132" xlink:href="D41337A04AD4F07.png"  pointer-events="none" transform="matrix(0.2273 0 0 0.2273 43.5 338.75)">
	</image>
	<path pointer-events="none" d="M61.2,379.2c0.8,0,1.4-0.5,1.4-1c0-0.6-0.6-1.1-1.4-1.1c-0.8,0-1.4,0.5-1.4,1.1
		C59.8,378.8,60.5,379.2,61.2,379.2 M59.5,389.3c0.5,0,0.8-0.3,0.8-0.6S60,388,59.5,388c-0.4,0-0.8,0.3-0.8,0.6
		C58.7,389,59.1,389.3,59.5,389.3 M81,389c0.4,0,0.8-0.3,0.8-0.6c0-0.3-0.4-0.6-0.8-0.6s-0.8,0.3-0.8,0.6S80.6,389,81,389
		 M68.8,395.9c0.4,0,0.8-0.3,0.8-0.6c0-0.3-0.4-0.6-0.8-0.6S68,395,68,395.3C67.9,395.7,68.3,395.9,68.8,395.9 M54,380.8L54,380.8
		C54,380.8,54,380.7,54,380.8c0-0.1,0-0.2,0.1-0.2h4.5c0.2,0,0.4-0.1,0.4-0.3c0-0.1-0.1-0.2-0.2-0.3l-4-1.4c-0.1,0-0.1-0.1-0.1-0.2
		s0-0.1,0.1-0.1c0,0,10.6-7,34.2-0.2l6.5-2.4c0.1,0,0.1,0,0.2,0c0.3,0,0.5,0.2,0.5,0.4c0,0.1,0,0.1-0.1,0.2l-3.8,3.5l3.8,3.5
		c0,0.1,0.1,0.1,0.1,0.2c0,0.2-0.2,0.4-0.5,0.4c-0.1,0-0.1,0-0.2,0l-6.5-2.4C88.8,381.5,66.3,388.2,54,380.8z M56.4,389.6
		L56.4,389.6C56.3,389.6,56.3,389.6,56.4,389.6C56.3,389.5,56.4,389.5,56.4,389.6l1.8-0.1c0.1,0,0.2-0.1,0.2-0.1
		c0-0.1,0-0.1-0.1-0.1l-1.6-0.6c0,0,0,0,0-0.1v-0.1c0,0,4.2-2.8,13.6-0.1l2.6-0.9H73c0.1,0,0.2,0.1,0.2,0.1v0.1l-1.5,1.4l1.5,1.4
		v0.1c0,0.1-0.1,0.1-0.2,0.1h-0.1l-2.6-0.9C70.3,389.9,61.3,392.6,56.4,389.6z M77.8,389.4L77.8,389.4
		C77.8,389.4,77.8,389.3,77.8,389.4C77.8,389.3,77.8,389.3,77.8,389.4l1.8-0.1c0.1,0,0.1,0,0.1-0.1s0-0.1-0.1-0.1l-1.6-0.6
		c0,0,0,0,0-0.1s0-0.1,0-0.1s4.2-2.8,13.7-0.1l2.6-0.9h0.1c0.1,0,0.2,0.1,0.2,0.2v0.1l-1.5,1.4l1.5,1.4v0.1c0,0.1-0.1,0.1-0.2,0.1
		h-0.1l-2.6-0.9C91.7,389.6,82.8,392.3,77.8,389.4z M65.6,396.3L65.6,396.3L65.6,396.3C65.6,396.2,65.6,396.2,65.6,396.3l1.8-0.1
		c0.1,0,0.2-0.1,0.2-0.1c0-0.1,0-0.1-0.1-0.1l-1.6-0.6c0,0,0,0,0-0.1l0,0c0,0,4.2-2.8,13.7-0.1l2.6-0.9h0.1c0.1,0,0.2,0.1,0.2,0.2
		v0.1L81,396l1.5,1.4v0.1c0,0.1-0.1,0.1-0.2,0.1h-0.1l-2.6-0.9C79.5,396.6,70.5,399.2,65.6,396.3"/>
	<path pointer-events="none" class="st3" d="M977.5,385v-23.8c0-13-3.5-19.6-10.3-19.6H761.8c-6.9,0-10.3,6.4-10.3,19.6V385"/>
	<path pointer-events="none" class="st4" d="M751.5,385v120.6c0,6,3.5,9,10.3,9h205.3c6.9,0,10.3-2.9,10.3-9V385"/>
	<g pointer-events="none">
		<text transform="matrix(1 0 0 1 790.0195 359.5)" class="st5 st6">Portails de données </text>
		<text transform="matrix(1 0 0 1 814.0195 378.7)" class="st5 st6">de recherche</text>
	</g>
	<g>
		<path pointer-events="none" class="st18" d="M772,394.5h185c2.5,0,4.5,2,4.5,4.5v21c0,2.5-2,4.5-4.5,4.5H772c-2.5,0-4.5-2-4.5-4.5
			v-21C767.5,396.5,769.5,394.5,772,394.5z"/>
		<g pointer-events="none">
			<text transform="matrix(1 0 0 1 844.8828 416)" class="st5 st6">OBIS</text>
		</g>
	</g>
	<g>
		<path pointer-events="none" class="st18" d="M772,434.5h185c2.5,0,4.5,2,4.5,4.5v21c0,2.5-2,4.5-4.5,4.5H772c-2.5,0-4.5-2-4.5-4.5
			v-21C767.5,436.5,769.5,434.5,772,434.5z"/>
		<g pointer-events="none">
			<text transform="matrix(1 0 0 1 793.0508 456)" class="st5 st6">Systèmes type ALA</text>
		</g>
	</g>
	<g>
		<path pointer-events="none" class="st18" d="M772,474.5h185c2.5,0,4.5,2,4.5,4.5v21c0,2.5-2,4.5-4.5,4.5H772c-2.5,0-4.5-2-4.5-4.5
			v-21C767.5,476.5,769.5,474.5,772,474.5z"/>
		<g pointer-events="none">
			<text transform="matrix(1 0 0 1 834.4336 496)" class="st5 st6">GBIF.org</text>
		</g>
	</g>
	<path pointer-events="none" class="st3" d="M977.5,243.5v-23c0-12.6-3.5-19-10.3-19H761.8c-6.9,0-10.3,6.2-10.3,19v23"/>
	<path pointer-events="none" class="st4" d="M751.5,243.5v79.8c0,5.4,3.5,8.2,10.3,8.2h205.3c6.9,0,10.3-2.7,10.3-8.2v-79.8"/>
	<g pointer-events="none">
		<text transform="matrix(1 0 0 1 764.0156 218.5)" class="st5 st6">Systèmes gouvernementaux </text>
		<text transform="matrix(1 0 0 1 823.6156 237.7)" class="st5 st6">de données</text>
	</g>
	<path pointer-events="none" class="st18" d="M769,252.5h188c2.5,0,4.5,2,4.5,4.5v21c0,2.5-2,4.5-4.5,4.5H769c-2.5,0-4.5-2-4.5-4.5
		v-21C764.5,254.5,766.5,252.5,769,252.5z"/>
	<g pointer-events="none">
		<text transform="matrix(1 0 0 1 782.0234 274)" class="st5 st6">Suivi de la biodiversité</text>
	</g>
	<path pointer-events="none" class="st18" d="M769,292h188c2.5,0,4.5,2,4.5,4.5v21c0,2.5-2,4.5-4.5,4.5H769c-2.5,0-4.5-2-4.5-4.5
		v-21C764.5,294,766.5,292,769,292z"/>
	<g pointer-events="none">
		<text transform="matrix(1 0 0 1 798.9961 313.5)" class="st5 st6">Espèces invasives</text>
	</g>
	<path pointer-events="none" class="st3" d="M611.5,24.5V11.9c0-6.9-3.5-10.4-10.3-10.4H11.9C5,1.5,1.5,5,1.5,11.9v12.6"/>
	<path pointer-events="none" class="st4" d="M1.5,24.5v140.6c0,6.9,3.5,10.4,10.4,10.4h589.3c6.9,0,10.3-3.4,10.3-10.4V24.5"/>
	<g pointer-events="none">
		<text transform="matrix(1 0 0 1 202.8516 19.5)" class="st5 st6">Archives externes (exemples)</text>
	</g>
	<path pointer-events="none" class="st3" d="M151.5,79.5V53.1c0-14.4-4.5-21.6-13.5-21.6H25c-9,0-13.5,7.2-13.5,21.6v26.4"/>
	<path pointer-events="none" class="st7" d="M11.5,79.5V156c0,9,4.5,13.5,13.5,13.5h113c9,0,13.5-4.5,13.5-13.5V79.5"/>
	<path pointer-events="none" class="st19" d="M11.5,61.5h140"/>
	<g pointer-events="none">
		<text transform="matrix(1 0 0 1 46.5078 53)" class="st5 st6">Notes de  </text>
		<text transform="matrix(1 0 0 1 42.9078 72.2)" class="st5 st6">terrain etc.</text>
	</g>
	<g>
		<g>
			<g>
				<g>
					<defs>
						<rect id="SVGID_1_" x="15.5" y="80.5" width="132" height="30"/>
					</defs>
					<clipPath id="SVGID_00000145763995242105047450000002527878458459913114_">
						<use xlink:href="#SVGID_1_"  style="overflow:visible;"/>
					</clipPath>
					<g pointer-events="none" style="clip-path:url(#SVGID_00000145763995242105047450000002527878458459913114_);">
						<text transform="matrix(1 0 0 1 17 102)" class="st5 st6">Dataverse</text>
					</g>
				</g>
			</g>
		</g>
	</g>
	<g>
		<g>
			<g>
				<g>
					<defs>
						<rect id="SVGID_00000010280910805862475680000007816575820744849551_" x="15.5" y="110.5" width="132" height="30"/>
					</defs>
					<clipPath id="SVGID_00000021118165523787945080000008548905161280994225_">
						<use xlink:href="#SVGID_00000010280910805862475680000007816575820744849551_"  style="overflow:visible;"/>
					</clipPath>
					<g pointer-events="none" style="clip-path:url(#SVGID_00000021118165523787945080000008548905161280994225_);">
						<text transform="matrix(1 0 0 1 17 132)" class="st5 st6">BIRD</text>
					</g>
				</g>
			</g>
		</g>
	</g>
	<g>
		<g>
			<g>
				<g>
					<defs>
						<rect id="SVGID_00000103224402373676512000000011691457317462585484_" x="15.5" y="140.5" width="132" height="30"/>
					</defs>
					<clipPath id="SVGID_00000039843381994687876260000005964996364089888677_">
						<use xlink:href="#SVGID_00000103224402373676512000000011691457317462585484_"  style="overflow:visible;"/>
					</clipPath>
					<g pointer-events="none" style="clip-path:url(#SVGID_00000039843381994687876260000005964996364089888677_);">
						<text transform="matrix(1 0 0 1 17 162)" class="st5 st6">EUDAT</text>
					</g>
				</g>
			</g>
		</g>
	</g>
	<path pointer-events="none" class="st3" d="M301.5,79.5V53.7c0-14.1-4.5-21.2-13.5-21.2H175c-9,0-13.5,7-13.5,21.2v25.8"/>
	<path pointer-events="none" class="st7" d="M161.5,80.5V127c0,42.5,0,42.5,13.7,42.5h120.5c5.8,0,6.4,0,5.8-42.5V80.5"/>
	<path pointer-events="none" class="st19" d="M161.5,62.5h140"/>
	<g pointer-events="none">
		<text transform="matrix(1 0 0 1 188.5039 54)" class="st5 st6">Fichiers des </text>
		<text transform="matrix(1 0 0 1 168.5039 73.2)" class="st5 st6">séquences brutes</text>
	</g>
	<g>
		<g>
			<g>
				<g>
					<defs>
						<rect id="SVGID_00000063622284135200443120000007179598049780325053_" x="165.5" y="87.2" width="132" height="55"/>
					</defs>
					<clipPath id="SVGID_00000163766707553145249290000000759727300600580276_">
						<use xlink:href="#SVGID_00000063622284135200443120000007179598049780325053_"  style="overflow:visible;"/>
					</clipPath>
					<g pointer-events="none" style="clip-path:url(#SVGID_00000163766707553145249290000000759727300600580276_);">
						<text transform="matrix(1 0 0 1 167 103)" class="st5 st6">DDBJ</text>
						<text transform="matrix(1 0 0 1 167 133)" class="st5 st6">ENA</text>
					</g>
				</g>
			</g>
		</g>
	</g>
	<g>
		<g>
			<g>
				<g>
					<defs>
						<rect id="SVGID_00000103981552948816364100000015309951044340354732_" x="165.5" y="110.5" width="132" height="55"/>
					</defs>
					<clipPath id="SVGID_00000013886271356793633350000004856714256502872495_">
						<use xlink:href="#SVGID_00000103981552948816364100000015309951044340354732_"  style="overflow:visible;"/>
					</clipPath>
					<g pointer-events="none" style="clip-path:url(#SVGID_00000013886271356793633350000004856714256502872495_);">
						<text transform="matrix(1 0 0 1 167 162)" class="st5 st6">GenBank</text>
					</g>
				</g>
			</g>
		</g>
	</g>
	<path pointer-events="none" class="st3" d="M451.5,79.5V53.7c0-14.1-4.5-21.2-13.5-21.2H325c-9,0-13.5,7-13.5,21.2v25.8"/>
	<path pointer-events="none" class="st7" d="M311.5,79.5V156c0,9,4.5,13.5,13.5,13.5h113c9,0,13.5-4.5,13.5-13.5V79.5"/>
	<path pointer-events="none" class="st19" d="M311.5,62.5h140"/>
	<g pointer-events="none">
		<text transform="matrix(1 0 0 1 325.1758 63)" class="st5 st6">Bioinformatique</text>
	</g>
	<g>
		<g>
			<g>
				<g>
					<defs>
						<rect id="SVGID_00000070798410270456750900000014449358044036157587_" x="315.5" y="79.5" width="132" height="30"/>
					</defs>
					<clipPath id="SVGID_00000114761068374610987840000002882513349222646438_">
						<use xlink:href="#SVGID_00000070798410270456750900000014449358044036157587_"  style="overflow:visible;"/>
					</clipPath>
					<g pointer-events="none" style="clip-path:url(#SVGID_00000114761068374610987840000002882513349222646438_);">
						<text transform="matrix(1 0 0 1 317 101)" class="st5 st6">GitHub</text>
					</g>
				</g>
			</g>
		</g>
	</g>
	<g>
		<g>
			<g>
				<g>
					<defs>
						<rect id="SVGID_00000039096216064685221260000005916102693736185733_" x="315.5" y="109.5" width="132" height="30"/>
					</defs>
					<clipPath id="SVGID_00000183245406785955641060000017117125864699554988_">
						<use xlink:href="#SVGID_00000039096216064685221260000005916102693736185733_"  style="overflow:visible;"/>
					</clipPath>
					<g pointer-events="none" style="clip-path:url(#SVGID_00000183245406785955641060000017117125864699554988_);">
						<text transform="matrix(1 0 0 1 317 131)" class="st5 st6">GitLab</text>
					</g>
				</g>
			</g>
		</g>
	</g>
	<g>
		<g>
			<g>
				<g>
					<defs>
						<rect id="SVGID_00000055681932806336617240000010622206126463145351_" x="315.5" y="139.5" width="132" height="30"/>
					</defs>
					<clipPath id="SVGID_00000016071723171000763860000000092524239538100919_">
						<use xlink:href="#SVGID_00000055681932806336617240000010622206126463145351_"  style="overflow:visible;"/>
					</clipPath>
					<g pointer-events="none" style="clip-path:url(#SVGID_00000016071723171000763860000000092524239538100919_);">
						<text transform="matrix(1 0 0 1 317 161)" class="st5 st6">Protocols.io</text>
					</g>
				</g>
			</g>
		</g>
	</g>
	<path pointer-events="none" class="st3" d="M601.5,79.7v-26c0-14.2-4.5-21.2-13.5-21.2H475c-9,0-13.5,7.1-13.5,21.2v26"/>
	<path pointer-events="none" class="st7" d="M461.5,79.5V96c0.1,63.9-2.3,73.5,6.7,73.5h127.3c9,0,5.7-8.5,6-73.5V79.5"/>
	<path pointer-events="none" class="st19" d="M461.5,62.5h140"/>
	<g pointer-events="none">
		<text transform="matrix(1 0 0 1 490.0508 54)" class="st5 st6">Bibliothèque </text>
		<text transform="matrix(1 0 0 1 489.1508 73.2)" class="st5 st6">de référence</text>
	</g>
	<g>
		<g>
			<g>
				<g>
					<defs>
						<polygon id="SVGID_00000101094984716303144420000005756266114272212407_" points="465.5,85.5 597.5,85.5 595.5,164.3 
							465.9,164.3 						"/>
					</defs>
					<clipPath id="SVGID_00000142152067539248287750000002138282676620702901_">
						<use xlink:href="#SVGID_00000101094984716303144420000005756266114272212407_"  style="overflow:visible;"/>
					</clipPath>
					<g pointer-events="none" style="clip-path:url(#SVGID_00000142152067539248287750000002138282676620702901_);">
						<text transform="matrix(1 0 0 1 467 101)" class="st5 st6">BOLD</text>
						<text transform="matrix(1 0 0 1 467 131)" class="st5 st6">SILVA</text>
						<text transform="matrix(1 0 0 1 467 161)" class="st5 st6">UNITE</text>
					</g>
				</g>
			</g>
		</g>
	</g>
	<path pointer-events="none" class="st29" d="M700,38.5h262.5c8.3,0,15,6.7,15,15v70c0,8.3-6.7,15-15,15H700c-8.3,0-15-6.7-15-15
		v-70C685,45.2,691.7,38.5,700,38.5z"/>
	<g transform="translate(-0.5 -0.5)">
		<text transform="matrix(1 0 0 1 748.6904 60.5)" class="st5 st6">Potentiel système pour </text>
		<text transform="matrix(1 0 0 1 753.1439 79.3797)" class="st5 st6">actualiser les résultats</text>
		<text transform="matrix(1 0 0 1 706.8937 98.2589)" class="st5 st6">(par exemple, lors de l’actualisation</text>
		<text transform="matrix(1 0 0 1 719.676 117.1385)" class="st5 st6">des bibliothèques de référence)</text>
	</g>
	
		<image style="overflow:visible;enable-background:new    ;" width="128" height="128" xlink:href="D41337A04AD4F18.png"  pointer-events="none" transform="matrix(0.7422 0 0 0.7422 901 111)">
	</image>
	
		<image style="overflow:visible;enable-background:new    ;" width="128" height="128" xlink:href="D41337A04AD4F1B.png"  pointer-events="none" transform="matrix(0.7422 0 0 0.7422 651 111)">
	</image>
</g>
<path class="st0" d="M0,0"/>
</svg>
